<!--?xml version="1.0" encoding="utf-8"?-->
<!-- Generator: Adobe Illustrator 18.0.0, SVG Export Plug-In . SVG Version: 6.00 Build 0)  -->

<svg version="1.1" id="_x32_" xmlns="http://www.w3.org/2000/svg" xmlns:xlink="http://www.w3.org/1999/xlink" x="0px" y="0px" viewBox="0 0 512 512" style="width: 256px; height: 256px; opacity: 1;" xml:space="preserve">
<style type="text/css">
	.st0{fill:#4B4B4B;}
</style>
<g>
	<polygon class="st0" points="209.403,111.029 144.971,62.705 0,62.705 0,106.231 0,112.973 0,384.277 48.324,303.005 
		48.324,159.353 386.59,159.353 386.59,191.569 434.913,191.569 434.913,111.029 	" style="fill: rgb(75, 75, 75);"></polygon>
	<path class="st0" d="M512,229.511l-80.392,146.817l-34.303,65.628c-2.409,3.816-7.017,7.34-10.715,7.34H16.108
		c-6.418,0-8.571-4.058-8.699-7.146v-0.064c0-0.064,0-0.064,0-0.129l114.695-212.444c1.851-3.587,2.997-5.726,6.759-5.726h376.378
		C508.94,223.784,512,226.422,512,229.511z" style="fill: rgb(75, 75, 75);"></path>
</g>
</svg>
